<?xml version="1.0" standalone="no"?>
<!DOCTYPE svg PUBLIC "-//W3C//DTD SVG 20010904//EN"
 "http://www.w3.org/TR/2001/REC-SVG-20010904/DTD/svg10.dtd">
<svg version="1.0" xmlns="http://www.w3.org/2000/svg"
 width="225.000000pt" height="225.000000pt" viewBox="0 0 225.000000 225.000000"
 preserveAspectRatio="xMidYMid meet">

<g transform="translate(0.000000,225.000000) scale(0.100000,-0.100000)"
fill="#000000" stroke="none">
<path d="M703 2234 c-52 -19 -118 -89 -132 -140 -15 -54 -15 -1884 0 -1938 15
-54 80 -121 136 -140 69 -24 697 -24 766 0 56 19 121 86 136 140 15 54 15
1884 0 1938 -15 54 -80 121 -136 140 -66 23 -706 22 -770 0z m430 -217 c54
-23 62 -40 67 -151 l5 -101 90 -5 90 -5 0 -30 0 -30 -90 -5 -90 -5 0 -110 0
-110 90 -5 90 -5 0 -30 0 -30 -90 -5 -90 -5 -3 -112 -3 -112 93 -3 93 -3 0
-30 0 -30 -93 -3 -93 -3 3 -112 3 -112 90 -5 90 -5 0 -30 0 -30 -90 -5 -90 -5
-3 -42 c-3 -36 1 -44 27 -64 137 -101 121 -311 -29 -393 -172 -94 -375 56
-339 249 10 53 56 125 93 144 22 12 26 21 26 62 l0 48 -92 3 -93 3 0 30 0 30
93 3 92 3 0 114 0 114 -92 3 -93 3 0 30 0 30 93 3 92 3 0 114 0 114 -92 3 -93
3 0 30 0 30 93 3 92 3 0 114 0 114 -92 3 -93 3 0 30 0 30 93 3 92 3 0 97 c0
109 10 134 64 158 39 17 49 17 89 1z"/>
<path d="M1943 2150 c-66 -13 -110 -39 -152 -86 -43 -49 -61 -100 -61 -174 0
-108 45 -185 134 -226 40 -19 68 -24 132 -24 94 0 117 12 112 55 -3 30 -3 30
-84 35 -126 9 -174 54 -174 165 0 113 56 165 177 165 62 0 74 3 83 20 14 26 5
57 -18 64 -40 11 -110 13 -149 6z"/>
<path d="M150 2130 c-19 -19 -20 -33 -20 -234 l0 -215 26 -20 c33 -26 36 -26
65 -2 21 17 24 29 28 105 l3 86 79 0 c69 0 80 2 89 21 9 16 8 26 -5 45 -14 22
-22 24 -90 24 l-75 0 0 60 0 60 83 0 c85 0 107 8 107 41 0 41 -26 49 -151 49
-106 0 -121 -2 -139 -20z"/>
</g>
</svg>
